o ButtonDown
v -0.21650635094610971 0 0.12499999999999994
v 0.21650635094610976 0 0.12499999999999982
v 0.17320508075688781 0.03 0.099999999999999867
v -0.17320508075688779 0.03 0.099999999999999964
v 0 0.03 0
v -4.5922738268339147E-17 0 -0.25
v -3.673819061467132E-17 0.03 -0.2
vn 2.2158912833273839E-16 0.64018439966447938 0.76822127959737618
vn 2.2158912833273839E-16 0.64018439966447926 0.76822127959737618
vn 2.154338747679401E-16 0.64018439966447926 0.76822127959737629
vn 2.1543387476794007E-16 0.64018439966447949 0.76822127959737618
vn 0 1 0
vn 0.66529914385911526 0.64018439966448 -0.3841106397986882
vn 0.66529914385911526 0.64018439966447993 -0.3841106397986882
vn 0.66529914385911515 0.64018439966448 -0.38411063979868815
vn -0.66529914385911548 0.64018439966447993 -0.38411063979868787
vn -0.66529914385911559 0.64018439966447982 -0.384110639798688
vn -0.66529914385911559 0.64018439966447971 -0.38411063979868804
vn -0.66529914385911548 0.64018439966448 -0.38411063979868793
vt 0.39174682452694515 0.5625
vt 0.60825317547305491 0.56249999999999989
vt 0.586602540378444 0.54999999999999993
vt 0.41339745962155611 0.54999999999999993
vt 0.5 0.5
vt 0.5 0.375
vt 0.5 0.4
g ButtonDown
f 1/1/1 2/2/2 3/3/3 4/4/4
f 4/4/5 3/3/5 5/5/5
f 2/2/6 6/6/6 7/7/7 3/3/8
f 3/3/5 7/7/5 5/5/5
f 6/6/9 1/1/10 4/4/11 7/7/12
f 7/7/5 4/4/5 5/5/5
