o ButtonUp
v 0.21650635094610959 0 -0.12500000000000011
v -0.21650635094610965 0 -0.12500000000000003
v -0.17320508075688773 0.03 -0.10000000000000003
v 0.17320508075688768 0.03 -0.10000000000000009
v 0 0.03 0
v 1.5307579422779716E-17 0 0.25
v 1.2246063538223773E-17 0.03 0.2
vn -1.4772608555515889E-16 0.64018439966448 -0.76822127959737563
vn -1.4772608555515892E-16 0.64018439966447993 -0.76822127959737585
vn -1.2310507129596576E-16 0.64018439966447982 -0.76822127959737585
vn -1.2310507129596571E-16 0.64018439966448015 -0.76822127959737563
vn 0 1 0
vn -0.66529914385911559 0.64018439966447971 0.38411063979868793
vn -0.6652991438591157 0.64018439966447971 0.384110639798688
vn -0.66529914385911559 0.64018439966447982 0.38411063979868787
vn 0.66529914385911593 0.64018439966447971 0.38411063979868781
vn 0.6652991438591157 0.64018439966447971 0.3841106397986877
vn 0.66529914385911582 0.6401843996644796 0.38411063979868781
vt 0.6082531754730548 0.43749999999999994
vt 0.3917468245269452 0.4375
vt 0.41339745962155616 0.44999999999999996
vt 0.58660254037844384 0.44999999999999996
vt 0.5 0.5
vt 0.5 0.625
vt 0.5 0.6
g ButtonUp
f 1/1/1 2/2/2 3/3/3 4/4/4
f 4/4/5 3/3/5 5/5/5
f 2/2/6 6/6/6 7/7/7 3/3/8
f 3/3/5 7/7/5 5/5/5
f 6/6/9 1/1/10 4/4/11 7/7/11
f 7/7/5 4/4/5 5/5/5
