o SmallFrame
v -0.25 0 0.34
v 0.25 0 0.34
v 0.2 0.03 0.29
v -0.2 0.03 0.29
v 0.16 0.03 0.25
v -0.16 0.03 0.25
v 0.15 0 0.24
v -0.15 0 0.24
v 0.25 0 -0.34
v 0.2 0.03 -0.29
v 0.16 0.03 -0.25
v 0.15 0 -0.24
v -0.25 0 -0.34
v -0.2 0.03 -0.29
v -0.16 0.03 -0.25
v -0.15 0 -0.24
vn 0 0.85749292571254443 0.51449575542752612
vn 0 0.85749292571254432 0.51449575542752612
vn 0 1 0
vn 0 0.31622776601683822 -0.94868329805051366
vn 0 0.31622776601683822 -0.94868329805051377
vn 0.51449575542752657 0.85749292571254421 0
vn 0.51449575542752657 0.8574929257125441 0
vn -0.94868329805051366 0.31622776601683816 0
vn -0.94868329805051377 0.31622776601683816 0
vn 0 0.85749292571254443 -0.51449575542752612
vn 0 0.85749292571254432 -0.51449575542752612
vn 0 0.31622776601683822 0.94868329805051366
vn 0 0.31622776601683822 0.94868329805051377
vn -0.51449575542752657 0.85749292571254421 0
vn -0.51449575542752657 0.8574929257125441 0
vn 0.94868329805051366 0.31622776601683816 0
vn 0.94868329805051377 0.31622776601683816 0
vt 0 1
vt 1 1
vt 0.98 0.98
vt 0.02 0.98
vt 0.96 0.96
vt 0.04 0.96
vt 0.94 0.94
vt 0.06 0.94
vt 1 0
vt 0.98 0.02
vt 0.96 0.04
vt 0.94 0.06
vt 0 0
vt 0.02 0.02
vt 0.04 0.04
vt 0.06 0.06
g SmallFrame
f 1/1/1 2/2/1 3/3/2 4/4/2
f 4/4/3 3/3/3 5/5/3 6/6/3
f 6/6/4 5/5/4 7/7/5 8/8/5
f 2/2/6 9/9/6 10/10/7 3/3/7
f 3/3/3 10/10/3 11/11/3 5/5/3
f 5/5/8 11/11/8 12/12/9 7/7/9
f 9/9/10 13/13/10 14/14/11 10/10/11
f 10/10/3 14/14/3 15/15/3 11/11/3
f 11/11/12 15/15/12 16/16/13 12/12/13
f 13/13/14 1/1/14 4/4/15 14/14/15
f 14/14/3 4/4/3 6/6/3 15/15/3
f 15/15/16 6/6/16 8/8/17 16/16/17
